<svg xmlns="http://www.w3.org/2000/svg" version="1.1" xmlns:xlink="http://www.w3.org/1999/xlink" xmlns:svgjs="http://svgjs.com/svgjs" width="1440" height="560" preserveAspectRatio="none" viewBox="0 0 1440 560"><g mask="url(&quot;#SvgjsMask1006&quot;)" fill="none"><path d="M1092.212,358.482C1118.121,357.337,1143.386,348.053,1157.173,326.088C1171.861,302.689,1175.028,272.669,1161.024,248.854C1147.185,225.32,1119.512,215.798,1092.212,215.621C1064.543,215.441,1036.898,224.741,1021.834,247.951C1005.394,273.282,1000.26,306.834,1016.479,332.307C1031.854,356.455,1063.613,359.746,1092.212,358.482" fill="rgba(197, 208, 230, 1)" class="triangle-float2"></path><path d="M46.155,120.744C66.181,120.279,85.235,111.943,95.985,95.041C107.6,76.779,112.028,53.229,100.906,34.662C90.017,16.484,67.32,10.837,46.155,11.856C26.9,12.783,10.121,23.227,-0.165,39.53C-11.305,57.185,-18.195,79.32,-7.853,97.454C2.557,115.707,25.148,121.232,46.155,120.744" fill="rgba(197, 208, 230, 1)" class="triangle-float2"></path><path d="M240.106,493.249C295.952,495.679,354.662,480.144,384.435,432.834C415.904,382.829,412.606,318.126,382.191,267.473C352.642,218.263,297.335,188.039,240.106,192.472C188.884,196.44,156.14,241.725,131.636,286.88C108.601,329.328,93.538,378.403,116.008,421.153C139.864,466.54,188.879,491.02,240.106,493.249" fill="rgba(197, 208, 230, 1)" class="triangle-float1"></path><path d="M1102.342,112.626C1128.089,111.883,1152.118,99.376,1165.096,77.127C1178.174,54.706,1177.221,27.597,1165.428,4.474C1152.322,-21.222,1131.186,-46.103,1102.342,-45.913C1073.707,-45.724,1054.419,-19.829,1040.681,5.296C1027.649,29.131,1019.448,57.387,1032.98,80.942C1046.551,104.564,1075.11,113.412,1102.342,112.626" fill="rgba(197, 208, 230, 1)" class="triangle-float1"></path><path d="M1077.141,420.06C1124.971,420.66,1181.643,425.388,1206.175,384.324C1231.015,342.745,1201.79,293.787,1177.668,251.787C1153.406,209.543,1125.747,162.922,1077.141,159.657C1024.229,156.103,975.978,190.192,950.146,236.506C924.965,281.651,924.185,338.645,953.597,381.155C979.926,419.21,1030.87,419.48,1077.141,420.06" fill="rgba(197, 208, 230, 1)" class="triangle-float3"></path><path d="M756.167,145.866C794.581,147.554,829.959,124.735,848.927,91.288C867.645,58.282,866.531,17.826,847.342,-14.908C828.374,-47.264,793.662,-67.845,756.167,-66.948C720.087,-66.085,689.11,-42.627,672.244,-10.72C656.461,19.137,660.574,53.947,676.527,83.713C693.576,115.524,720.11,144.282,756.167,145.866" fill="rgba(197, 208, 230, 1)" class="triangle-float1"></path><path d="M86.639,621.276C115.129,620.062,143.985,612.859,159.653,589.033C176.905,562.799,180.553,528.902,165.507,501.344C149.872,472.707,119.225,453.659,86.639,455.301C56.299,456.83,36.111,482.635,20.43,508.653C4.011,535.895,-14.132,568.332,1.988,595.752C17.997,622.983,55.08,622.621,86.639,621.276" fill="rgba(197, 208, 230, 1)" class="triangle-float3"></path><path d="M190.555,207.76C211.879,208.864,234.7,202.47,245.391,183.986C256.093,165.483,249.465,142.995,238.694,124.532C228.027,106.247,211.713,89.302,190.555,89.984C170.172,90.641,156.857,109.347,147.506,127.471C139.089,143.784,136.067,162.599,144.741,178.776C153.893,195.845,171.213,206.759,190.555,207.76" fill="rgba(197, 208, 230, 1)" class="triangle-float1"></path><path d="M328.413,244.114C352.881,243.079,372.398,226.83,385.469,206.12C399.735,183.516,412.17,155.685,398.849,132.512C385.502,109.295,355.186,107.491,328.413,106.871C300.018,106.213,267.269,105.108,252.085,129.111C236.26,154.128,245.961,186.667,262.331,211.331C276.904,233.289,302.083,245.228,328.413,244.114" fill="rgba(197, 208, 230, 1)" class="triangle-float2"></path><path d="M1257.847,589.445C1282.211,588.741,1301.174,571.655,1314.276,551.102C1328.759,528.383,1342.369,500.827,1329.391,477.216C1316.12,453.072,1285.398,448.403,1257.847,448.437C1230.373,448.471,1200.529,453.707,1186.605,477.391C1172.546,501.306,1180.591,531.122,1195.475,554.533C1209.176,576.083,1232.321,590.182,1257.847,589.445" fill="rgba(197, 208, 230, 1)" class="triangle-float2"></path></g><defs><mask id="SvgjsMask1006"><rect width="1440" height="560" fill="#ffffff"></rect></mask><style>
            @keyframes float1 {
                0%{transform: translate(0, 0)}
                50%{transform: translate(-10px, 0)}
                100%{transform: translate(0, 0)}
            }

            .triangle-float1 {
                animation: float1 5s infinite;
            }

            @keyframes float2 {
                0%{transform: translate(0, 0)}
                50%{transform: translate(-5px, -5px)}
                100%{transform: translate(0, 0)}
            }

            .triangle-float2 {
                animation: float2 4s infinite;
            }

            @keyframes float3 {
                0%{transform: translate(0, 0)}
                50%{transform: translate(0, -10px)}
                100%{transform: translate(0, 0)}
            }

            .triangle-float3 {
                animation: float3 6s infinite;
            }
        </style></defs></svg>